<svg xmlns="http://www.w3.org/2000/svg" xmlns:xlink="http://www.w3.org/1999/xlink" width="500" zoomAndPan="magnify" viewBox="0 0 375 374.999991" height="500" preserveAspectRatio="xMidYMid meet" version="1.0"><defs><clipPath id="id1"><path d="M 166 16.828125 L 201 16.828125 L 201 231 L 166 231 Z M 166 16.828125 " clip-rule="nonzero"/></clipPath><clipPath id="id2"><path d="M 30.015625 65 L 114 65 L 114 281 L 30.015625 281 Z M 30.015625 65 " clip-rule="nonzero"/></clipPath><clipPath id="id3"><path d="M 254 68 L 337.515625 68 L 337.515625 284 L 254 284 Z M 254 68 " clip-rule="nonzero"/></clipPath><clipPath id="id4"><path d="M 48 161 L 320 161 L 320 358.078125 L 48 358.078125 Z M 48 161 " clip-rule="nonzero"/></clipPath></defs><rect x="-37.5" width="450" fill="rgb(100%, 100%, 100%)" y="-37.499999" height="449.999989" fill-opacity="1"/><rect x="-37.5" width="450" fill="rgb(100%, 100%, 100%)" y="-37.499999" height="449.999989" fill-opacity="1"/><rect x="-37.5" width="450" fill="rgb(100%, 100%, 100%)" y="-37.499999" height="449.999989" fill-opacity="1"/><rect x="-37.5" width="450" fill="rgb(100%, 100%, 100%)" y="-37.499999" height="449.999989" fill-opacity="1"/><g clip-path="url(#id1)"><path fill="rgb(98.429871%, 75.289917%, 17.649841%)" d="M 166.707031 16.828125 L 200.824219 16.828125 L 200.824219 230.109375 L 166.707031 230.109375 Z M 166.707031 16.828125 " fill-opacity="1" fill-rule="nonzero"/></g><path fill="rgb(98.429871%, 75.289917%, 17.649841%)" d="M 121.015625 27.863281 L 155.007812 25.359375 L 170.667969 238.066406 L 136.671875 240.570312 Z M 121.015625 27.863281 " fill-opacity="1" fill-rule="nonzero"/><path fill="rgb(98.429871%, 75.289917%, 17.649841%)" d="M 76.296875 56.332031 L 109.964844 50.976562 L 143.441406 261.605469 L 109.769531 266.957031 Z M 76.296875 56.332031 " fill-opacity="1" fill-rule="nonzero"/><path fill="rgb(98.429871%, 75.289917%, 17.649841%)" d="M 197.59375 246.824219 L 213.226562 34.117188 L 247.210938 36.613281 L 231.578125 249.320312 Z M 197.59375 246.824219 " fill-opacity="1" fill-rule="nonzero"/><path fill="rgb(98.429871%, 75.289917%, 17.649841%)" d="M 227.523438 253.546875 L 261.023438 42.921875 L 294.6875 48.277344 L 261.1875 258.902344 Z M 227.523438 253.546875 " fill-opacity="1" fill-rule="nonzero"/><g clip-path="url(#id2)"><path fill="rgb(98.429871%, 75.289917%, 17.649841%)" d="M 30.214844 73.714844 L 63.335938 65.667969 L 113.679688 272.890625 L 80.558594 280.941406 Z M 30.214844 73.714844 " fill-opacity="1" fill-rule="nonzero"/></g><g clip-path="url(#id3)"><path fill="rgb(98.429871%, 75.289917%, 17.649841%)" d="M 287.140625 283.566406 L 254.136719 275.523438 L 304.300781 68.289062 L 337.304688 76.34375 Z M 287.140625 283.566406 " fill-opacity="1" fill-rule="nonzero"/></g><path fill="rgb(100%, 93.328857%, 34.509277%)" d="M 133.105469 69.640625 L 167.085938 67.003906 L 183.59375 279.636719 L 149.613281 282.273438 Z M 133.105469 69.640625 " fill-opacity="1" fill-rule="nonzero"/><path fill="rgb(100%, 93.328857%, 34.509277%)" d="M 175.515625 287.109375 L 193.554688 74.59375 L 227.511719 77.476562 L 209.46875 289.992188 Z M 175.515625 287.109375 " fill-opacity="1" fill-rule="nonzero"/><path fill="rgb(100%, 93.328857%, 34.509277%)" d="M 248.21875 308.480469 L 215.285156 299.65625 L 270.277344 93.609375 L 303.210938 102.421875 Z M 248.21875 308.480469 " fill-opacity="1" fill-rule="nonzero"/><path fill="rgb(100%, 93.328857%, 34.509277%)" d="M 70.359375 110.980469 L 103.285156 102.164062 L 158.414062 308.175781 L 125.488281 316.992188 Z M 70.359375 110.980469 " fill-opacity="1" fill-rule="nonzero"/><g clip-path="url(#id4)"><path fill="rgb(95.689392%, 26.269531%, 21.179199%)" d="M 279.035156 161.859375 C 267.597656 181.320312 228.761719 194.917969 183.46875 194.917969 C 138.175781 194.917969 99.347656 181.320312 82.148438 161.859375 L 48.507812 161.859375 L 72.878906 332.484375 L 106.996094 358.078125 C 106.996094 358.078125 141.363281 341.015625 183.765625 341.015625 C 226.167969 341.015625 260.535156 358.078125 260.535156 358.078125 L 294.652344 332.484375 L 319.023438 161.859375 Z M 279.035156 161.859375 " fill-opacity="1" fill-rule="nonzero"/></g><path fill="rgb(100%, 65.489197%, 14.898682%)" d="M 183.765625 187.453125 C 183.84375 187.453125 183.910156 187.453125 183.980469 187.453125 L 185.429688 170.367188 C 184.875 170.367188 184.328125 170.390625 183.765625 170.390625 C 180.824219 170.390625 177.941406 170.308594 175.097656 170.179688 L 176.421875 187.308594 C 178.851562 187.394531 181.292969 187.453125 183.765625 187.453125 Z M 141.902344 182.941406 L 140.519531 165.027344 C 137.148438 164.128906 133.925781 163.15625 130.898438 162.089844 L 132.246094 180.449219 C 135.359375 181.363281 138.582031 182.191406 141.902344 182.941406 Z M 123.46875 177.585938 C 125.738281 178.421875 128.066406 179.214844 130.472656 179.949219 L 127.425781 160.777344 C 123.945312 159.421875 120.738281 157.980469 117.8125 156.453125 Z M 241.921875 160.085938 L 241.445312 160.265625 C 235.148438 162.808594 227.941406 165.019531 219.941406 166.722656 L 218.441406 184.390625 C 225.65625 183.085938 232.496094 181.390625 238.859375 179.351562 C 239.269531 179.222656 239.671875 179.078125 240.078125 178.949219 C 242.921875 178.003906 245.675781 177.003906 248.3125 175.929688 L 254.179688 153.945312 C 250.632812 156.121094 246.546875 158.191406 241.921875 160.085938 Z M 81.6875 153.328125 L 77.117188 136.265625 L 45.402344 136.265625 L 49.546875 153.328125 Z M 322.792969 136.265625 L 294.175781 136.265625 L 289.621094 153.328125 L 318.664062 153.328125 Z M 322.792969 136.265625 " fill-opacity="1" fill-rule="nonzero"/><path fill="rgb(99.21875%, 84.709167%, 20.779419%)" d="M 175.097656 170.179688 C 172.300781 170.050781 169.5625 169.847656 166.875 169.605469 C 166.449219 169.566406 166.039062 169.523438 165.613281 169.480469 C 156.511719 168.574219 148.09375 167.046875 140.511719 165.035156 L 141.894531 182.949219 C 149.75 184.726562 158.109375 186.03125 166.867188 186.765625 L 166.867188 186.628906 L 166.875 186.765625 C 170.007812 187.027344 173.1875 187.207031 176.414062 187.316406 Z M 206.644531 168.96875 C 204.785156 169.207031 202.882812 169.394531 200.960938 169.574219 C 195.972656 170.042969 190.792969 170.316406 185.4375 170.359375 L 183.980469 187.453125 C 189.769531 187.445312 195.433594 187.191406 200.960938 186.722656 C 202.445312 186.59375 203.90625 186.429688 205.363281 186.277344 C 209.839844 185.792969 214.199219 185.167969 218.441406 184.402344 L 219.941406 166.730469 C 215.71875 167.628906 211.273438 168.378906 206.644531 168.96875 Z M 293.222656 136.265625 L 271.351562 136.265625 L 266.25 143.46875 C 263.726562 147.035156 259.597656 150.609375 254.171875 153.945312 L 248.304688 175.929688 C 260.457031 170.964844 270.292969 164.632812 276.859375 157.390625 C 278.0625 156.058594 279.1875 154.710938 280.171875 153.328125 L 289.621094 153.328125 L 291.363281 146.820312 L 294.175781 136.265625 Z M 117.8125 156.460938 C 110.144531 152.449219 104.457031 147.964844 101.28125 143.476562 L 96.179688 136.265625 L 77.117188 136.265625 L 81.679688 153.328125 L 87.351562 153.328125 C 88.847656 155.445312 90.671875 157.476562 92.683594 159.457031 C 100.003906 166.636719 110.5625 172.847656 123.460938 177.585938 Z M 117.8125 156.460938 " fill-opacity="1" fill-rule="nonzero"/><path fill="rgb(100%, 75.689697%, 2.749634%)" d="M 79.566406 170.390625 C 99.578125 191.082031 137.78125 204.515625 183.765625 204.515625 C 229.75 204.515625 267.957031 191.082031 287.964844 170.390625 L 317.8125 170.390625 L 320.242188 153.328125 L 280.179688 153.328125 C 266.113281 173.199219 228.316406 187.453125 183.765625 187.453125 C 139.214844 187.453125 101.417969 173.199219 87.351562 153.328125 L 47.289062 153.328125 L 49.726562 170.390625 Z M 209.355469 231.175781 C 219.660156 231.175781 226.414062 271.453125 226.414062 323.953125 L 243.476562 323.953125 C 243.476562 267.417969 228.4375 221.578125 209.894531 221.578125 C 199.339844 221.578125 189.925781 235.359375 183.773438 256.898438 C 177.617188 235.359375 168.199219 221.578125 157.648438 221.578125 C 139.09375 221.578125 124.058594 267.417969 124.058594 323.953125 L 141.117188 323.953125 C 141.117188 271.453125 147.871094 231.175781 158.175781 231.175781 C 168.480469 231.175781 175.234375 266.957031 175.234375 315.421875 L 192.296875 315.421875 C 192.296875 266.957031 199.050781 231.175781 209.355469 231.175781 Z M 209.355469 231.175781 " fill-opacity="1" fill-rule="nonzero"/></svg>